<?xml version="1.0" encoding="utf-8"?>
<!-- Generator: Adobe Illustrator 28.2.0, SVG Export Plug-In . SVG Version: 6.00 Build 0)  -->
<svg version="1.1" id="Layer_1" xmlns="http://www.w3.org/2000/svg" xmlns:xlink="http://www.w3.org/1999/xlink" x="0px" y="0px"
	 viewBox="0 0 108 108" style="enable-background:new 0 0 108 108;" xml:space="preserve">
<path d="M0,0v108h108V0H0z M44.27,69.43l9.14-15.82c0.13-0.23,0.47-0.23,0.6,0l9.14,15.82c0.05,0.08,0.06,0.18,0.03,0.27
	l-9.14,29.63c-0.1,0.32-0.56,0.32-0.66,0L44.24,69.7C44.21,69.61,44.22,69.51,44.27,69.43z M8.81,75.59L40.5,43.57
	c0.03-0.03,0.06-0.08,0.08-0.12L53.38,9.2c0.11-0.3,0.53-0.3,0.65,0l12.8,34.25c0.02,0.05,0.04,0.09,0.08,0.12L98.6,75.59
	c0.26,0.26-0.02,0.7-0.37,0.56L67.67,64.33c-0.07-0.03-0.14-0.08-0.17-0.15L54,40.82c-0.13-0.23-0.47-0.23-0.6,0L39.91,64.18
	c-0.04,0.07-0.1,0.12-0.17,0.15L9.18,76.16C8.83,76.29,8.54,75.86,8.81,75.59z"/>
</svg>
