<?xml version="1.0" encoding="utf-8"?>
<!-- Generator: Adobe Illustrator 28.1.0, SVG Export Plug-In . SVG Version: 6.00 Build 0)  -->
<svg version="1.1" id="Layer_1" xmlns="http://www.w3.org/2000/svg" xmlns:xlink="http://www.w3.org/1999/xlink" x="0px" y="0px"
	 viewBox="0 0 1224 792" style="enable-background:new 0 0 1224 792;" xml:space="preserve">
<g>
	<path d="M333.35,361.76l97.14,168.25c0.28,0.49,0.73,0.87,1.26,1.08l220.05,85.15c2.5,0.97,4.55-2.16,2.66-4.07l-228.2-230.6
		c-0.25-0.25-0.44-0.55-0.56-0.88L333.53,134.1c-0.81-2.15-3.85-2.15-4.66,0l-92.18,246.59c-0.12,0.33-0.31,0.63-0.56,0.88
		L7.94,612.16c-1.89,1.91,0.16,5.03,2.66,4.07l220.06-85.15c0.53-0.2,0.97-0.58,1.26-1.08l97.14-168.25
		C330,360.1,332.4,360.1,333.35,361.76z"/>
	<path d="M329.05,453.83l-65.78,113.94c-0.35,0.6-0.43,1.31-0.22,1.98l65.78,213.31c0.72,2.34,4.03,2.34,4.75,0l65.78-213.31
		c0.2-0.66,0.12-1.38-0.22-1.98l-65.78-113.94C332.4,452.17,330,452.17,329.05,453.83z"/>
</g>
<g>
	<path d="M1109.52,643.79l32.38,56.08c0.09,0.16,0.24,0.29,0.42,0.36l73.35,28.38c0.83,0.32,1.52-0.72,0.89-1.36l-76.07-76.87
		c-0.08-0.08-0.15-0.18-0.19-0.29l-30.72-82.2c-0.27-0.72-1.28-0.72-1.55,0l-30.73,82.2c-0.04,0.11-0.1,0.21-0.19,0.29l-76.06,76.87
		c-0.63,0.64,0.05,1.68,0.89,1.36l73.35-28.38c0.18-0.07,0.32-0.19,0.42-0.36l32.38-56.08
		C1108.4,643.23,1109.2,643.23,1109.52,643.79z"/>
	<path d="M1108.08,674.48l-21.93,37.98c-0.12,0.2-0.14,0.44-0.07,0.66l21.93,71.1c0.24,0.78,1.34,0.78,1.58,0l21.93-71.1
		c0.07-0.22,0.04-0.46-0.07-0.66l-21.93-37.98C1109.2,673.92,1108.4,673.92,1108.08,674.48z"/>
</g>
<g>
	<path d="M1109.52,363.71l32.38,56.08c0.09,0.16,0.24,0.29,0.42,0.36l73.35,28.38c0.83,0.32,1.52-0.72,0.89-1.36l-76.07-76.87
		c-0.08-0.08-0.15-0.18-0.19-0.29l-30.72-82.2c-0.27-0.72-1.28-0.72-1.55,0l-30.73,82.2c-0.04,0.11-0.1,0.21-0.19,0.29l-76.06,76.87
		c-0.63,0.64,0.05,1.68,0.89,1.36l73.35-28.38c0.18-0.07,0.32-0.19,0.42-0.36l32.38-56.08
		C1108.4,363.15,1109.2,363.15,1109.52,363.71z"/>
	<path d="M1108.08,394.4l-21.93,37.98c-0.12,0.2-0.14,0.44-0.07,0.66l21.93,71.1c0.24,0.78,1.34,0.78,1.58,0l21.93-71.1
		c0.07-0.22,0.04-0.46-0.07-0.66l-21.93-37.98C1109.2,393.84,1108.4,393.84,1108.08,394.4z"/>
</g>
<g>
	<path d="M1109.52,83.63l32.38,56.08c0.09,0.16,0.24,0.29,0.42,0.36l73.35,28.38c0.83,0.32,1.52-0.72,0.89-1.36l-76.07-76.87
		c-0.08-0.08-0.15-0.18-0.19-0.29l-30.72-82.2c-0.27-0.72-1.28-0.72-1.55,0l-30.73,82.2c-0.04,0.11-0.1,0.21-0.19,0.29l-76.06,76.87
		c-0.63,0.64,0.05,1.68,0.89,1.36l73.35-28.38c0.18-0.07,0.32-0.19,0.42-0.36l32.38-56.08C1108.4,83.07,1109.2,83.07,1109.52,83.63z
		"/>
	<path d="M1108.08,114.32l-21.93,37.98c-0.12,0.2-0.14,0.44-0.07,0.66l21.93,71.1c0.24,0.78,1.34,0.78,1.58,0l21.93-71.1
		c0.07-0.22,0.04-0.46-0.07-0.66l-21.93-37.98C1109.2,113.76,1108.4,113.76,1108.08,114.32z"/>
</g>
<g>
	<path d="M857.52,643.79l32.38,56.08c0.09,0.16,0.24,0.29,0.42,0.36l73.35,28.38c0.83,0.32,1.52-0.72,0.89-1.36l-76.07-76.87
		c-0.08-0.08-0.15-0.18-0.19-0.29l-30.72-82.2c-0.27-0.72-1.28-0.72-1.55,0l-30.73,82.2c-0.04,0.11-0.1,0.21-0.19,0.29l-76.06,76.87
		c-0.63,0.64,0.05,1.68,0.89,1.36l73.35-28.38c0.18-0.07,0.32-0.19,0.42-0.36l32.38-56.08C856.4,643.23,857.2,643.23,857.52,643.79z
		"/>
	<path d="M856.08,674.48l-21.93,37.98c-0.12,0.2-0.14,0.44-0.07,0.66l21.93,71.1c0.24,0.78,1.34,0.78,1.58,0l21.93-71.1
		c0.07-0.22,0.04-0.46-0.07-0.66l-21.93-37.98C857.2,673.92,856.4,673.92,856.08,674.48z"/>
</g>
<g>
	<path d="M857.52,363.71l32.38,56.08c0.09,0.16,0.24,0.29,0.42,0.36l73.35,28.38c0.83,0.32,1.52-0.72,0.89-1.36l-76.07-76.87
		c-0.08-0.08-0.15-0.18-0.19-0.29l-30.72-82.2c-0.27-0.72-1.28-0.72-1.55,0l-30.73,82.2c-0.04,0.11-0.1,0.21-0.19,0.29l-76.06,76.87
		c-0.63,0.64,0.05,1.68,0.89,1.36l73.35-28.38c0.18-0.07,0.32-0.19,0.42-0.36l32.38-56.08C856.4,363.15,857.2,363.15,857.52,363.71z
		"/>
	<path d="M856.08,394.4l-21.93,37.98c-0.12,0.2-0.14,0.44-0.07,0.66l21.93,71.1c0.24,0.78,1.34,0.78,1.58,0l21.93-71.1
		c0.07-0.22,0.04-0.46-0.07-0.66l-21.93-37.98C857.2,393.84,856.4,393.84,856.08,394.4z"/>
</g>
<g>
	<path d="M857.52,83.63l32.38,56.08c0.09,0.16,0.24,0.29,0.42,0.36l73.35,28.38c0.83,0.32,1.52-0.72,0.89-1.36l-76.07-76.87
		c-0.08-0.08-0.15-0.18-0.19-0.29l-30.72-82.2c-0.27-0.72-1.28-0.72-1.55,0l-30.73,82.2c-0.04,0.11-0.1,0.21-0.19,0.29l-76.06,76.87
		c-0.63,0.64,0.05,1.68,0.89,1.36l73.35-28.38c0.18-0.07,0.32-0.19,0.42-0.36l32.38-56.08C856.4,83.07,857.2,83.07,857.52,83.63z"/>
	<path d="M856.08,114.32l-21.93,37.98c-0.12,0.2-0.14,0.44-0.07,0.66l21.93,71.1c0.24,0.78,1.34,0.78,1.58,0l21.93-71.1
		c0.07-0.22,0.04-0.46-0.07-0.66l-21.93-37.98C857.2,113.76,856.4,113.76,856.08,114.32z"/>
</g>
<g>
	<path d="M52.5,39.05l13.49,23.37c0.04,0.07,0.1,0.12,0.17,0.15l30.56,11.83c0.35,0.13,0.63-0.3,0.37-0.56L65.4,41.8
		c-0.03-0.03-0.06-0.08-0.08-0.12L52.52,7.43c-0.11-0.3-0.53-0.3-0.65,0l-12.8,34.25c-0.02,0.05-0.04,0.09-0.08,0.12L7.3,73.82
		c-0.26,0.26,0.02,0.7,0.37,0.56l30.56-11.83c0.07-0.03,0.14-0.08,0.17-0.15L51.9,39.05C52.03,38.82,52.37,38.82,52.5,39.05z"/>
	<path d="M51.9,51.83l-9.14,15.82c-0.05,0.08-0.06,0.18-0.03,0.27l9.14,29.63c0.1,0.32,0.56,0.32,0.66,0l9.14-29.63
		c0.03-0.09,0.02-0.19-0.03-0.27L52.5,51.83C52.37,51.6,52.03,51.6,51.9,51.83z"/>
</g>
<g>
	<path d="M178.5,39.05l13.49,23.37c0.04,0.07,0.1,0.12,0.17,0.15l30.56,11.83c0.35,0.13,0.63-0.3,0.37-0.56L191.4,41.8
		c-0.03-0.03-0.06-0.08-0.08-0.12l-12.8-34.25c-0.11-0.3-0.53-0.3-0.65,0l-12.8,34.25c-0.02,0.05-0.04,0.09-0.08,0.12L133.3,73.82
		c-0.26,0.26,0.02,0.7,0.37,0.56l30.56-11.83c0.07-0.03,0.14-0.08,0.17-0.15l13.49-23.37C178.03,38.82,178.37,38.82,178.5,39.05z"/>
	<path d="M177.9,51.83l-9.14,15.82c-0.05,0.08-0.06,0.18-0.03,0.27l9.14,29.63c0.1,0.32,0.56,0.32,0.66,0l9.14-29.63
		c0.03-0.09,0.02-0.19-0.03-0.27l-9.14-15.82C178.37,51.6,178.03,51.6,177.9,51.83z"/>
</g>
<g>
	<path d="M304.5,39.05l13.49,23.37c0.04,0.07,0.1,0.12,0.17,0.15l30.56,11.83c0.35,0.13,0.63-0.3,0.37-0.56L317.4,41.8
		c-0.03-0.03-0.06-0.08-0.08-0.12l-12.8-34.25c-0.11-0.3-0.53-0.3-0.65,0l-12.8,34.25c-0.02,0.05-0.04,0.09-0.08,0.12L259.3,73.82
		c-0.26,0.26,0.02,0.7,0.37,0.56l30.56-11.83c0.07-0.03,0.14-0.08,0.17-0.15l13.49-23.37C304.03,38.82,304.37,38.82,304.5,39.05z"/>
	<path d="M303.9,51.83l-9.14,15.82c-0.05,0.08-0.06,0.18-0.03,0.27l9.14,29.63c0.1,0.32,0.56,0.32,0.66,0l9.14-29.63
		c0.03-0.09,0.02-0.19-0.03-0.27l-9.14-15.82C304.37,51.6,304.03,51.6,303.9,51.83z"/>
</g>
<g>
	<path d="M430.5,39.05l13.49,23.37c0.04,0.07,0.1,0.12,0.17,0.15l30.56,11.83c0.35,0.13,0.63-0.3,0.37-0.56L443.4,41.8
		c-0.03-0.03-0.06-0.08-0.08-0.12l-12.8-34.25c-0.11-0.3-0.53-0.3-0.65,0l-12.8,34.25c-0.02,0.05-0.04,0.09-0.08,0.12L385.3,73.82
		c-0.26,0.26,0.02,0.7,0.37,0.56l30.56-11.83c0.07-0.03,0.14-0.08,0.17-0.15l13.49-23.37C430.03,38.82,430.37,38.82,430.5,39.05z"/>
	<path d="M429.9,51.83l-9.14,15.82c-0.05,0.08-0.06,0.18-0.03,0.27l9.14,29.63c0.1,0.32,0.56,0.32,0.66,0l9.14-29.63
		c0.03-0.09,0.02-0.19-0.03-0.27l-9.14-15.82C430.37,51.6,430.03,51.6,429.9,51.83z"/>
</g>
<g>
	<path d="M556.5,39.05l13.49,23.37c0.04,0.07,0.1,0.12,0.17,0.15l30.56,11.83c0.35,0.13,0.63-0.3,0.37-0.56L569.4,41.8
		c-0.03-0.03-0.06-0.08-0.08-0.12l-12.8-34.25c-0.11-0.3-0.53-0.3-0.65,0l-12.8,34.25c-0.02,0.05-0.04,0.09-0.08,0.12L511.3,73.82
		c-0.26,0.26,0.02,0.7,0.37,0.56l30.56-11.83c0.07-0.03,0.14-0.08,0.17-0.15l13.49-23.37C556.03,38.82,556.37,38.82,556.5,39.05z"/>
	<path d="M555.9,51.83l-9.14,15.82c-0.05,0.08-0.06,0.18-0.03,0.27l9.14,29.63c0.1,0.32,0.56,0.32,0.66,0l9.14-29.63
		c0.03-0.09,0.02-0.19-0.03-0.27l-9.14-15.82C556.37,51.6,556.03,51.6,555.9,51.83z"/>
</g>
<g>
	<path d="M682.5,39.05l13.49,23.37c0.04,0.07,0.1,0.12,0.17,0.15l30.56,11.83c0.35,0.13,0.63-0.3,0.37-0.56L695.4,41.8
		c-0.03-0.03-0.06-0.08-0.08-0.12l-12.8-34.25c-0.11-0.3-0.53-0.3-0.65,0l-12.8,34.25c-0.02,0.05-0.04,0.09-0.08,0.12L637.3,73.82
		c-0.26,0.26,0.02,0.7,0.37,0.56l30.56-11.83c0.07-0.03,0.14-0.08,0.17-0.15l13.49-23.37C682.03,38.82,682.37,38.82,682.5,39.05z"/>
	<path d="M681.9,51.83l-9.14,15.82c-0.05,0.08-0.06,0.18-0.03,0.27l9.14,29.63c0.1,0.32,0.56,0.32,0.66,0l9.14-29.63
		c0.03-0.09,0.02-0.19-0.03-0.27l-9.14-15.82C682.37,51.6,682.03,51.6,681.9,51.83z"/>
</g>
<g>
	<path d="M556.5,165.64l13.49,23.37c0.04,0.07,0.1,0.12,0.17,0.15l30.56,11.83c0.35,0.13,0.63-0.3,0.37-0.56L569.4,168.4
		c-0.03-0.03-0.06-0.08-0.08-0.12l-12.8-34.25c-0.11-0.3-0.53-0.3-0.65,0l-12.8,34.25c-0.02,0.05-0.04,0.09-0.08,0.12l-31.69,32.03
		c-0.26,0.26,0.02,0.7,0.37,0.56l30.56-11.83c0.07-0.03,0.14-0.08,0.17-0.15l13.49-23.37C556.03,165.41,556.37,165.41,556.5,165.64z
		"/>
	<path d="M555.9,178.43l-9.14,15.82c-0.05,0.08-0.06,0.18-0.03,0.27l9.14,29.63c0.1,0.32,0.56,0.32,0.66,0l9.14-29.63
		c0.03-0.09,0.02-0.19-0.03-0.27l-9.14-15.82C556.37,178.2,556.03,178.2,555.9,178.43z"/>
</g>
<g>
	<path d="M682.5,165.64l13.49,23.37c0.04,0.07,0.1,0.12,0.17,0.15l30.56,11.83c0.35,0.13,0.63-0.3,0.37-0.56L695.4,168.4
		c-0.03-0.03-0.06-0.08-0.08-0.12l-12.8-34.25c-0.11-0.3-0.53-0.3-0.65,0l-12.8,34.25c-0.02,0.05-0.04,0.09-0.08,0.12l-31.69,32.03
		c-0.26,0.26,0.02,0.7,0.37,0.56l30.56-11.83c0.07-0.03,0.14-0.08,0.17-0.15l13.49-23.37C682.03,165.41,682.37,165.41,682.5,165.64z
		"/>
	<path d="M681.9,178.43l-9.14,15.82c-0.05,0.08-0.06,0.18-0.03,0.27l9.14,29.63c0.1,0.32,0.56,0.32,0.66,0l9.14-29.63
		c0.03-0.09,0.02-0.19-0.03-0.27l-9.14-15.82C682.37,178.2,682.03,178.2,681.9,178.43z"/>
</g>
<g>
	<path d="M556.5,292.3l13.49,23.37c0.04,0.07,0.1,0.12,0.17,0.15l30.56,11.83c0.35,0.13,0.63-0.3,0.37-0.56l-31.69-32.03
		c-0.03-0.03-0.06-0.08-0.08-0.12l-12.8-34.25c-0.11-0.3-0.53-0.3-0.65,0l-12.8,34.25c-0.02,0.05-0.04,0.09-0.08,0.12l-31.69,32.03
		c-0.26,0.26,0.02,0.7,0.37,0.56l30.56-11.83c0.07-0.03,0.14-0.08,0.17-0.15l13.49-23.37C556.03,292.07,556.37,292.07,556.5,292.3z"
		/>
	<path d="M555.9,305.09l-9.14,15.82c-0.05,0.08-0.06,0.18-0.03,0.27l9.14,29.63c0.1,0.32,0.56,0.32,0.66,0l9.14-29.63
		c0.03-0.09,0.02-0.19-0.03-0.27l-9.14-15.82C556.37,304.86,556.03,304.86,555.9,305.09z"/>
</g>
<g>
	<path d="M682.5,292.3l13.49,23.37c0.04,0.07,0.1,0.12,0.17,0.15l30.56,11.83c0.35,0.13,0.63-0.3,0.37-0.56l-31.69-32.03
		c-0.03-0.03-0.06-0.08-0.08-0.12l-12.8-34.25c-0.11-0.3-0.53-0.3-0.65,0l-12.8,34.25c-0.02,0.05-0.04,0.09-0.08,0.12l-31.69,32.03
		c-0.26,0.26,0.02,0.7,0.37,0.56l30.56-11.83c0.07-0.03,0.14-0.08,0.17-0.15l13.49-23.37C682.03,292.07,682.37,292.07,682.5,292.3z"
		/>
	<path d="M681.9,305.09l-9.14,15.82c-0.05,0.08-0.06,0.18-0.03,0.27l9.14,29.63c0.1,0.32,0.56,0.32,0.66,0l9.14-29.63
		c0.03-0.09,0.02-0.19-0.03-0.27l-9.14-15.82C682.37,304.86,682.03,304.86,681.9,305.09z"/>
</g>
</svg>
